<svg width="44" height="28" viewBox="0 0 44 28" fill="none" xmlns="http://www.w3.org/2000/svg">
<path d="M9.27441 15.8376C9.27441 16.1876 9.44945 16.3625 9.79945 16.3625C10.4119 16.3625 10.762 15.8375 10.8495 15.05C10.6745 15.05 10.6744 15.05 10.4994 15.05C9.71194 15.05 9.27441 15.3126 9.27441 15.8376Z" fill="#424246"/>
<path d="M31.6746 15.8376C31.6746 16.1876 31.8495 16.3625 32.1995 16.3625C32.812 16.3625 33.162 15.8375 33.2495 15.05C33.0745 15.05 33.0745 15.05 32.8995 15.05C32.0245 15.05 31.6746 15.3126 31.6746 15.8376Z" fill="#424246"/>
<path d="M20.999 13.2124C20.5615 13.2124 20.2115 13.5624 20.124 14.1749H21.699C21.699 13.9999 21.874 13.2124 20.999 13.2124Z" fill="#424246"/>
<path d="M39.9876 13.3875C39.3751 13.3875 38.8501 14.1749 38.8501 15.2249C38.8501 15.9249 39.1126 16.2749 39.5501 16.2749C40.2501 16.2749 40.6876 15.4875 40.6876 14.4375C40.7751 13.7375 40.5126 13.3875 39.9876 13.3875Z" fill="#424246"/>
<path d="M30.8865 0.962402C27.5615 0.962402 24.499 2.18739 22.1365 4.28739C19.8615 2.18739 16.799 0.962402 13.474 0.962402C6.29905 0.962402 0.436523 6.82492 0.436523 13.9999C0.436523 21.1749 6.29905 27.0374 13.474 27.0374C16.799 27.0374 19.8615 25.8124 22.1365 23.7124C24.4115 25.8124 27.474 27.0374 30.8865 27.0374C38.0615 27.0374 43.924 21.1749 43.924 13.9999C43.924 6.82492 38.0615 0.962402 30.8865 0.962402ZM5.94901 17.4999L6.73653 12.4249L4.899 17.4999H3.93652L3.84904 12.4249L2.97404 17.4999H1.66154L2.79903 10.8499H4.81152L4.899 14.9624L6.29903 10.8499H8.48653L7.34904 17.4999H5.94901ZM10.674 17.4999V16.9749C10.324 17.4124 9.79902 17.5874 9.18652 17.5874C8.39902 17.5874 7.87402 16.9749 7.87402 16.0999C7.87402 14.7874 8.74901 13.9999 10.324 13.9999C10.499 13.9999 10.674 13.9999 10.9365 13.9999C11.024 13.8249 11.024 13.7374 11.024 13.6499C11.024 13.2999 10.7615 13.1249 10.149 13.1249C9.449 13.1249 8.92404 13.2999 8.66154 13.3874C8.66154 13.2999 8.8365 12.1624 8.8365 12.1624C9.5365 11.9874 9.97402 11.8999 10.499 11.8999C11.724 11.8999 12.3365 12.4249 12.3365 13.4749C12.3365 13.7374 12.3365 14.0874 12.249 14.5249C12.1615 15.3124 11.899 16.9749 11.8115 17.4124C11.6365 17.4999 10.674 17.4999 10.674 17.4999ZM14.874 14.2624C15.574 14.6124 15.8365 15.0499 15.8365 15.7499C15.8365 16.9749 15.1365 17.5874 13.649 17.5874C12.774 17.5874 12.5115 17.4999 12.1615 17.4124C12.1615 17.3249 12.3365 16.1874 12.3365 16.1874C12.774 16.3624 13.2115 16.3624 13.649 16.3624C14.174 16.3624 14.4365 16.1874 14.4365 15.8374C14.4365 15.5749 14.349 15.4874 13.7365 15.2249C12.949 14.8749 12.6865 14.4374 12.6865 13.7374C12.6865 12.7749 13.2115 11.8999 14.7865 11.8999C15.1365 11.8999 15.6615 11.9874 16.0115 11.9874L15.8365 13.2124C15.4865 13.1249 15.1365 13.1249 14.7865 13.1249C14.349 13.1249 14.0865 13.2999 14.0865 13.5624C14.174 13.9124 14.2615 13.9999 14.874 14.2624ZM17.9365 16.2749C18.1115 16.2749 18.199 16.2749 18.2865 16.1874L18.1115 17.4124C17.7615 17.4999 17.4115 17.5874 17.0615 17.5874C16.3615 17.5874 15.924 17.1499 15.924 16.3624C15.924 16.0999 16.0115 15.4874 16.099 14.9624C16.1865 14.4374 16.7115 11.2874 16.7115 11.2874H18.1115L17.9365 12.0749H18.6365L18.4615 13.3874H17.7615C17.5865 14.4374 17.324 15.6624 17.324 15.8374C17.499 16.0999 17.674 16.2749 17.9365 16.2749ZM21.2615 16.3624C21.7865 16.3624 22.224 16.2749 22.749 16.0124L22.4865 17.3249C21.9615 17.4999 21.524 17.4999 20.999 17.4999C19.424 17.4999 18.6365 16.7124 18.6365 15.1374C18.6365 13.2999 19.6865 11.8999 21.0865 11.8999C22.224 11.8999 23.0115 12.6874 23.0115 13.8249C23.0115 14.2624 22.924 14.6124 22.8365 15.1374H20.0365C19.949 16.0124 20.474 16.3624 21.2615 16.3624ZM24.4115 17.4999H23.0115L23.099 17.1499C23.3615 15.4874 23.624 13.8249 23.799 12.1624H25.1115C25.1115 12.4249 25.024 12.6874 25.024 12.9499C25.4615 12.3374 25.8115 11.9874 26.424 12.0749C26.249 12.3374 25.9865 12.9499 25.899 13.6499C25.024 13.5624 24.9365 14.1749 24.4115 17.4999ZM29.8365 17.4124C29.3115 17.5874 28.9615 17.5874 28.6115 17.5874C27.124 17.5874 26.1615 16.4499 26.1615 14.6999C26.1615 12.3374 27.474 10.6749 29.399 10.6749C30.0115 10.6749 30.7115 10.9374 30.974 11.0249L30.7115 12.4249C30.1865 12.1624 29.8365 12.0749 29.4865 12.0749C28.4365 12.0749 27.649 13.1249 27.649 14.5249C27.649 15.4874 28.174 16.0999 28.9615 16.0999C29.3115 16.0999 29.6615 16.0124 30.1865 15.7499L29.8365 17.4124ZM34.2115 17.4999C34.0365 17.4999 33.074 17.4999 33.074 17.4999V16.9749C32.724 17.4124 32.199 17.5874 31.5865 17.5874C30.799 17.5874 30.274 16.9749 30.274 16.0999C30.274 14.7874 31.149 13.9999 32.724 13.9999C32.899 13.9999 33.074 13.9999 33.3365 13.9999C33.424 13.8249 33.424 13.7374 33.424 13.6499C33.424 13.2999 33.1615 13.1249 32.549 13.1249C31.849 13.1249 31.324 13.2999 31.0615 13.3874C31.0615 13.2999 31.2365 12.1624 31.2365 12.1624C31.9365 11.9874 32.374 11.8999 32.899 11.8999C34.124 11.8999 34.7365 12.4249 34.7365 13.4749C34.7365 13.7374 34.7365 14.0874 34.649 14.5249C34.474 15.3999 34.2115 17.0624 34.2115 17.4999ZM36.1365 17.4999H34.7365L34.824 17.1499C35.0865 15.4874 35.349 13.8249 35.524 12.1624H36.8365C36.8365 12.4249 36.749 12.6874 36.749 12.9499C37.1865 12.3374 37.5365 11.9874 38.149 12.0749C37.974 12.3374 37.7115 12.9499 37.624 13.6499C36.749 13.5624 36.574 14.1749 36.1365 17.4999ZM40.3365 17.4999L40.424 16.9749C40.074 17.4124 39.6365 17.5874 39.1115 17.5874C38.0615 17.5874 37.3615 16.7124 37.3615 15.3124C37.3615 13.5624 38.4115 11.9874 39.6365 11.9874C40.1615 11.9874 40.599 12.2499 40.949 12.6874L41.299 10.7624H42.699L41.649 17.4124H40.3365V17.4999Z" fill="#424246"/>
</svg>
