<svg width="29" height="28" viewBox="0 0 29 28" fill="none" xmlns="http://www.w3.org/2000/svg">
<path d="M28.8494 14.0001C28.8494 21.6914 22.6145 27.9264 14.9233 27.9264C7.23202 27.9264 0.99707 21.6914 0.99707 14.0001C0.99707 6.30892 7.23202 0.0739746 14.9233 0.0739746C22.6144 0.0739746 28.8494 6.30892 28.8494 14.0001Z" fill="#424246"/>
<path d="M13.4939 13.7564V11.3201H10.1895V9.18457H19.4233V11.3502H16.1189V13.7564H13.4939Z" fill="#14141A"/>
<path d="M14.7307 12.5532C18.0347 12.5533 20.6903 13.2149 20.6907 14.0269C20.6907 14.8389 18.0349 15.5004 14.7307 15.5005C11.4263 15.5005 8.76978 14.839 8.76978 14.0269C8.77018 13.2148 11.4266 12.5532 14.7307 12.5532ZM14.7297 12.7935C11.2709 12.7935 9.47912 13.696 9.26294 14.0269C9.47912 14.3276 11.2709 14.7788 14.7297 14.7788C18.2193 14.7788 19.9794 14.3276 20.1956 14.0269C19.9787 13.7259 18.1876 12.7935 14.7297 12.7935Z" fill="#14141A"/>
<path d="M16.12 14.5084V12.8241C15.6876 12.794 15.2244 12.7639 14.7612 12.7639C14.3288 12.7639 13.9273 12.7639 13.5259 12.794V14.4784C13.8965 14.4784 14.3288 14.5084 14.7612 14.5084C15.2244 14.5385 15.6876 14.5385 16.12 14.5084Z" fill="#14141A"/>
<path d="M14.7304 15.5011C14.2981 15.5011 13.8966 15.5011 13.4951 15.471V19.9526H16.0892V15.4409C15.6569 15.471 15.1936 15.5011 14.7304 15.5011Z" fill="#14141A"/>
</svg>
