<svg width="43" height="14" viewBox="0 0 43 14" fill="none" xmlns="http://www.w3.org/2000/svg">
<path d="M17.6756 0.437256L14.7881 13.7373H18.2881L21.088 0.437256H17.6756Z" fill="#424246"/>
<path d="M12.5998 0.437332L9.01225 9.44982L7.52473 1.74983C7.34973 0.874832 6.64974 0.437332 5.94975 0.437332H0.0872345L-0.000244141 0.787354C1.22476 1.04985 2.53728 1.48734 3.41228 1.92484C3.93728 2.18734 4.02474 2.44983 4.19975 3.06233L6.91228 13.6499H10.5872L16.1873 0.349854H12.5998V0.437332Z" fill="#424246"/>
<path d="M39.8123 0.437256H36.8372C36.1372 0.437256 35.6123 0.787288 35.3498 1.39979L30.1873 13.7373H33.7747L34.4748 11.7248H38.8498L39.2873 13.7373H42.4373L39.8123 0.437256ZM35.6123 9.01225L37.4497 4.02479L38.4998 9.01225H35.6123Z" fill="#424246"/>
<path d="M25.6374 4.1123C25.6374 3.6748 26.0749 3.14982 27.1249 2.97482C27.6499 2.88732 28.9624 2.88733 30.5374 3.58733L31.1499 0.787315C30.3624 0.524815 29.2249 0.174805 27.9124 0.174805C24.4999 0.174805 22.1374 2.0123 22.1374 4.5498C22.1374 6.4748 23.8874 7.52478 25.1124 8.13728C26.4249 8.74978 26.8624 9.1873 26.8624 9.7998C26.8624 10.6748 25.8124 11.1123 24.7624 11.1123C23.0124 11.1123 22.0499 10.6748 21.2624 10.2373L20.6499 13.1248C21.4374 13.4748 22.9249 13.8248 24.4999 13.8248C28.0874 13.8248 30.4499 12.0748 30.4499 9.27483C30.4499 5.94983 25.5499 5.6873 25.6374 4.1123Z" fill="#424246"/>
</svg>
