<svg width="29" height="28" viewBox="0 0 29 28" fill="none" xmlns="http://www.w3.org/2000/svg">
<path d="M28.5058 17.3869C26.6359 24.887 19.0391 29.451 11.5382 27.5811C4.04077 25.7113 -0.523665 18.1145 1.34665 10.6149C3.21565 3.11395 10.812 -1.45093 18.3107 0.418948C25.8112 2.28882 30.3752 9.88645 28.5053 17.3869H28.5058Z" fill="#424246"/>
<path d="M20.993 16.4972C20.9032 16.4972 20.8583 16.4523 20.8583 16.3624V14.7087H19.0085C18.9187 14.7087 18.8738 14.6597 18.8738 14.5617V13.6797C18.8738 13.5817 18.9187 13.5327 19.0085 13.5327H20.8583V11.8789C20.8583 11.7809 20.9032 11.7319 20.993 11.7319H21.924C22.0139 11.7319 22.0588 11.7809 22.0588 11.8789V13.5327H23.9085C23.9984 13.5327 24.0433 13.5817 24.0433 13.6797V14.5617C24.0433 14.6597 23.9984 14.7087 23.9085 14.7087H22.0588V16.3624C22.0588 16.4523 22.0139 16.4972 21.924 16.4972H20.993Z" fill="#14141A"/>
<path d="M14.1709 17.9428C13.1909 17.9428 12.4354 17.7508 11.9046 17.367C11.3819 16.9832 11.1206 16.4033 11.1206 15.6275C11.1206 15.1048 11.2431 14.6638 11.4881 14.3045C11.7413 13.9452 12.0884 13.6838 12.5294 13.5205C12.1864 13.3653 11.925 13.1448 11.7454 12.859C11.5739 12.565 11.4881 12.1812 11.4881 11.7075C11.4881 11.0542 11.7168 10.5438 12.1741 10.1763C12.6314 9.80875 13.297 9.625 14.1709 9.625C15.0447 9.625 15.7103 9.80875 16.1676 10.1763C16.6249 10.5438 16.8536 11.0542 16.8536 11.7075C16.8536 12.1812 16.7638 12.565 16.5841 12.859C16.4126 13.1448 16.1513 13.3653 15.8001 13.5205C16.2493 13.6838 16.5964 13.9452 16.8414 14.3045C17.0945 14.6638 17.2211 15.1048 17.2211 15.6275C17.2211 16.4033 16.9557 16.9832 16.4249 17.367C15.9022 17.7508 15.1509 17.9428 14.1709 17.9428ZM14.1709 16.7545C14.7017 16.7545 15.0978 16.6524 15.3591 16.4483C15.6286 16.2441 15.7634 15.9542 15.7634 15.5785V15.3948C15.7634 14.9701 15.6204 14.6475 15.3346 14.427C15.0569 14.1983 14.669 14.084 14.1709 14.084C13.6727 14.084 13.2807 14.1983 12.9949 14.427C12.7172 14.6475 12.5784 14.9701 12.5784 15.3948V15.5785C12.5784 15.9542 12.709 16.2441 12.9704 16.4483C13.2399 16.6524 13.64 16.7545 14.1709 16.7545ZM14.1709 13.0183C14.5792 13.0183 14.8895 12.9284 15.1019 12.7488C15.3224 12.5609 15.4326 12.3037 15.4326 11.977V11.7933C15.4326 11.4829 15.3224 11.2379 15.1019 11.0583C14.8895 10.8704 14.5792 10.7765 14.1709 10.7765C13.7625 10.7765 13.4481 10.8704 13.2276 11.0583C13.0153 11.2379 12.9091 11.4829 12.9091 11.7933V11.977C12.9091 12.3037 13.0153 12.5609 13.2276 12.7488C13.4481 12.9284 13.7625 13.0183 14.1709 13.0183Z" fill="#14141A"/>
<path d="M5.25902 17.7957C5.16918 17.7957 5.12427 17.7467 5.12427 17.6487V16.6687C5.12427 16.5789 5.16918 16.5339 5.25902 16.5339H7.12102V11.3154L5.34477 11.8667C5.24677 11.8994 5.19777 11.8626 5.19777 11.7564V10.7887C5.19777 10.707 5.23043 10.6539 5.29577 10.6294L8.00302 9.74744C8.03568 9.73928 8.06835 9.73111 8.10102 9.72294C8.14185 9.71478 8.1786 9.71069 8.21127 9.71069H8.43177C8.5216 9.71069 8.56652 9.75969 8.56652 9.85769V16.5339H10.2448C10.3428 16.5339 10.3918 16.5789 10.3918 16.6687V17.6487C10.3918 17.7467 10.3428 17.7957 10.2448 17.7957H5.25902Z" fill="#14141A"/>
</svg>
